<svg width="1200" height="720" viewBox="0 0 1200 720" fill="none" xmlns="http://www.w3.org/2000/svg">
  <defs>
    <linearGradient id="bg" x1="100" y1="88" x2="1062" y2="644" gradientUnits="userSpaceOnUse">
      <stop stop-color="#FFF7ED"/>
      <stop offset="0.45" stop-color="#FFFFFF"/>
      <stop offset="1" stop-color="#EFF6FF"/>
    </linearGradient>
  </defs>
  <rect width="1200" height="720" rx="36" fill="url(#bg)"/>
  <circle cx="210" cy="140" r="96" fill="#F59E0B" fill-opacity="0.12"/>
  <circle cx="990" cy="564" r="134" fill="#3B82F6" fill-opacity="0.10"/>

  <rect x="124" y="100" width="952" height="520" rx="32" fill="#FFFFFF" stroke="#E5E7EB" stroke-width="2"/>
  <rect x="170" y="144" width="228" height="22" rx="11" fill="#E85A4F" fill-opacity="0.14"/>
  <rect x="170" y="184" width="362" height="14" rx="7" fill="#CBD5E1"/>

  <rect x="170" y="246" width="258" height="288" rx="24" fill="#FEF2F2" stroke="#FECACA" stroke-width="2"/>
  <rect x="206" y="284" width="88" height="88" rx="20" fill="#E85A4F" fill-opacity="0.18"/>
  <rect x="218" y="394" width="108" height="14" rx="7" fill="#991B1B"/>
  <rect x="218" y="422" width="140" height="10" rx="5" fill="#F87171"/>
  <rect x="218" y="446" width="118" height="10" rx="5" fill="#FCA5A5"/>
  <rect x="218" y="484" width="110" height="36" rx="18" fill="#E85A4F"/>

  <rect x="470" y="246" width="258" height="288" rx="24" fill="#EFF6FF" stroke="#BFDBFE" stroke-width="2"/>
  <rect x="506" y="284" width="88" height="88" rx="20" fill="#2563EB" fill-opacity="0.18"/>
  <rect x="518" y="394" width="108" height="14" rx="7" fill="#1E3A8A"/>
  <rect x="518" y="422" width="146" height="10" rx="5" fill="#60A5FA"/>
  <rect x="518" y="446" width="104" height="10" rx="5" fill="#93C5FD"/>
  <rect x="518" y="484" width="110" height="36" rx="18" fill="#2563EB"/>

  <rect x="770" y="246" width="258" height="288" rx="24" fill="#F8FAFC" stroke="#CBD5E1" stroke-width="2"/>
  <rect x="806" y="284" width="88" height="88" rx="20" fill="#0F172A" fill-opacity="0.14"/>
  <rect x="818" y="394" width="108" height="14" rx="7" fill="#0F172A"/>
  <rect x="818" y="422" width="142" height="10" rx="5" fill="#94A3B8"/>
  <rect x="818" y="446" width="98" height="10" rx="5" fill="#CBD5E1"/>
  <rect x="818" y="484" width="110" height="36" rx="18" fill="#0F172A"/>

  <path d="M299 328L327 352L369 306" stroke="#E85A4F" stroke-width="12" stroke-linecap="round" stroke-linejoin="round"/>
  <path d="M599 316H637M618 297V335" stroke="#2563EB" stroke-width="12" stroke-linecap="round"/>
  <path d="M891 306L933 348M933 306L891 348" stroke="#0F172A" stroke-width="12" stroke-linecap="round"/>
</svg>
