<svg width="1200" height="720" viewBox="0 0 1200 720" fill="none" xmlns="http://www.w3.org/2000/svg">
  <defs>
    <linearGradient id="bg" x1="120" y1="74" x2="1036" y2="638" gradientUnits="userSpaceOnUse">
      <stop stop-color="#F8FAFC"/>
      <stop offset="0.46" stop-color="#FFFFFF"/>
      <stop offset="1" stop-color="#FEF2F2"/>
    </linearGradient>
  </defs>
  <rect width="1200" height="720" rx="36" fill="url(#bg)"/>
  <circle cx="260" cy="126" r="98" fill="#3B82F6" fill-opacity="0.10"/>
  <circle cx="944" cy="588" r="138" fill="#E85A4F" fill-opacity="0.10"/>

  <rect x="138" y="94" width="924" height="532" rx="32" fill="#FFFFFF" stroke="#E5E7EB" stroke-width="2"/>
  <rect x="184" y="140" width="250" height="22" rx="11" fill="#2563EB" fill-opacity="0.12"/>
  <rect x="184" y="180" width="330" height="14" rx="7" fill="#CBD5E1"/>

  <rect x="184" y="246" width="230" height="302" rx="24" fill="#0F172A"/>
  <rect x="218" y="284" width="120" height="14" rx="7" fill="#F8FAFC" fill-opacity="0.88"/>
  <rect x="218" y="328" width="154" height="16" rx="8" fill="#3B82F6"/>
  <rect x="218" y="362" width="122" height="10" rx="5" fill="#60A5FA"/>
  <rect x="218" y="396" width="142" height="10" rx="5" fill="#94A3B8"/>
  <rect x="218" y="442" width="130" height="40" rx="20" fill="#E85A4F"/>
  <rect x="218" y="500" width="164" height="12" rx="6" fill="#334155"/>

  <rect x="460" y="246" width="272" height="302" rx="24" fill="#FFFFFF" stroke="#BFDBFE" stroke-width="2"/>
  <rect x="496" y="284" width="148" height="16" rx="8" fill="#1E3A8A"/>
  <rect x="496" y="326" width="182" height="54" rx="18" fill="#EFF6FF"/>
  <rect x="516" y="346" width="114" height="10" rx="5" fill="#2563EB"/>
  <rect x="516" y="364" width="90" height="8" rx="4" fill="#93C5FD"/>
  <rect x="496" y="410" width="182" height="54" rx="18" fill="#FEF2F2"/>
  <rect x="516" y="430" width="122" height="10" rx="5" fill="#E85A4F"/>
  <rect x="516" y="448" width="84" height="8" rx="4" fill="#FCA5A5"/>
  <rect x="496" y="494" width="108" height="36" rx="18" fill="#10B981"/>

  <rect x="778" y="246" width="238" height="302" rx="24" fill="#F8FAFC" stroke="#E2E8F0" stroke-width="2"/>
  <rect x="814" y="284" width="120" height="16" rx="8" fill="#0F172A"/>
  <rect x="814" y="326" width="166" height="14" rx="7" fill="#CBD5E1"/>
  <rect x="814" y="354" width="142" height="14" rx="7" fill="#E2E8F0"/>
  <rect x="814" y="404" width="166" height="96" rx="20" fill="#FFFFFF" stroke="#E2E8F0" stroke-width="2"/>
  <rect x="840" y="430" width="110" height="10" rx="5" fill="#10B981"/>
  <rect x="840" y="448" width="94" height="8" rx="4" fill="#86EFAC"/>
  <rect x="840" y="470" width="72" height="8" rx="4" fill="#BBF7D0"/>

  <path d="M679 396L739 396" stroke="#94A3B8" stroke-width="8" stroke-linecap="round"/>
  <path d="M721 378L739 396L721 414" stroke="#94A3B8" stroke-width="8" stroke-linecap="round" stroke-linejoin="round"/>
</svg>
