<svg width="1200" height="720" viewBox="0 0 1200 720" fill="none" xmlns="http://www.w3.org/2000/svg">
  <defs>
    <linearGradient id="bg" x1="110" y1="70" x2="1030" y2="650" gradientUnits="userSpaceOnUse">
      <stop stop-color="#FFF5F4"/>
      <stop offset="0.52" stop-color="#FFFFFF"/>
      <stop offset="1" stop-color="#F3F7FF"/>
    </linearGradient>
    <linearGradient id="panel" x1="280" y1="110" x2="900" y2="610" gradientUnits="userSpaceOnUse">
      <stop stop-color="#FFFFFF"/>
      <stop offset="1" stop-color="#F8FAFC"/>
    </linearGradient>
  </defs>
  <rect width="1200" height="720" rx="36" fill="url(#bg)"/>
  <circle cx="206" cy="150" r="108" fill="#E85A4F" fill-opacity="0.10"/>
  <circle cx="1038" cy="568" r="128" fill="#3B82F6" fill-opacity="0.10"/>
  <rect x="196" y="86" width="808" height="548" rx="28" fill="url(#panel)" stroke="#E5E7EB" stroke-width="2"/>
  <rect x="236" y="126" width="220" height="22" rx="11" fill="#E85A4F" fill-opacity="0.14"/>
  <rect x="236" y="168" width="336" height="14" rx="7" fill="#CBD5E1"/>
  <rect x="236" y="196" width="276" height="14" rx="7" fill="#E2E8F0"/>

  <rect x="236" y="248" width="220" height="286" rx="24" fill="#0F172A"/>
  <rect x="268" y="286" width="78" height="12" rx="6" fill="#F8FAFC" fill-opacity="0.86"/>
  <rect x="268" y="322" width="156" height="16" rx="8" fill="#E85A4F" fill-opacity="0.92"/>
  <rect x="268" y="356" width="128" height="10" rx="5" fill="#94A3B8"/>
  <rect x="268" y="388" width="148" height="10" rx="5" fill="#64748B"/>
  <rect x="268" y="438" width="92" height="36" rx="18" fill="#10B981"/>
  <rect x="372" y="438" width="44" height="36" rx="18" fill="#1E293B"/>

  <rect x="492" y="248" width="472" height="286" rx="24" fill="#FFFFFF" stroke="#E2E8F0" stroke-width="2"/>
  <rect x="528" y="286" width="164" height="18" rx="9" fill="#0F172A"/>
  <rect x="528" y="334" width="122" height="12" rx="6" fill="#E85A4F" fill-opacity="0.82"/>
  <rect x="528" y="358" width="148" height="12" rx="6" fill="#F59E0B" fill-opacity="0.50"/>
  <rect x="528" y="382" width="136" height="12" rx="6" fill="#3B82F6" fill-opacity="0.44"/>
  <rect x="528" y="430" width="184" height="62" rx="18" fill="#FEF2F1"/>
  <rect x="734" y="430" width="184" height="62" rx="18" fill="#EFF6FF"/>
  <rect x="548" y="450" width="106" height="10" rx="5" fill="#E85A4F"/>
  <rect x="548" y="468" width="74" height="8" rx="4" fill="#FCA5A5"/>
  <rect x="754" y="450" width="116" height="10" rx="5" fill="#2563EB"/>
  <rect x="754" y="468" width="82" height="8" rx="4" fill="#93C5FD"/>

  <rect x="236" y="568" width="728" height="28" rx="14" fill="#E2E8F0"/>
  <rect x="236" y="568" width="458" height="28" rx="14" fill="#10B981"/>
  <circle cx="694" cy="582" r="16" fill="#FFFFFF" stroke="#10B981" stroke-width="4"/>
</svg>
