<svg xmlns="http://www.w3.org/2000/svg" width="512" height="512" viewBox="0 0 512 512" role="img" aria-labelledby="title desc">
  <title id="title">WeChat Group QR Placeholder</title>
  <desc id="desc">Placeholder image for the WeChat group QR code.</desc>
  <rect width="512" height="512" rx="40" fill="#f8fafc"/>
  <rect x="24" y="24" width="464" height="464" rx="28" fill="#ffffff" stroke="#dbe4ee" stroke-width="8"/>
  <rect x="56" y="56" width="112" height="112" rx="16" fill="#111827"/>
  <rect x="72" y="72" width="80" height="80" rx="10" fill="#ffffff"/>
  <rect x="88" y="88" width="48" height="48" rx="6" fill="#111827"/>
  <rect x="344" y="56" width="112" height="112" rx="16" fill="#111827"/>
  <rect x="360" y="72" width="80" height="80" rx="10" fill="#ffffff"/>
  <rect x="376" y="88" width="48" height="48" rx="6" fill="#111827"/>
  <rect x="56" y="344" width="112" height="112" rx="16" fill="#111827"/>
  <rect x="72" y="360" width="80" height="80" rx="10" fill="#ffffff"/>
  <rect x="88" y="376" width="48" height="48" rx="6" fill="#111827"/>
  <g fill="#111827">
    <rect x="208" y="72" width="20" height="20" rx="5"/>
    <rect x="240" y="72" width="20" height="20" rx="5"/>
    <rect x="272" y="88" width="20" height="20" rx="5"/>
    <rect x="304" y="72" width="20" height="20" rx="5"/>
    <rect x="224" y="112" width="20" height="20" rx="5"/>
    <rect x="256" y="120" width="20" height="20" rx="5"/>
    <rect x="288" y="136" width="20" height="20" rx="5"/>
    <rect x="320" y="152" width="20" height="20" rx="5"/>
    <rect x="216" y="176" width="20" height="20" rx="5"/>
    <rect x="248" y="192" width="20" height="20" rx="5"/>
    <rect x="280" y="200" width="20" height="20" rx="5"/>
    <rect x="312" y="216" width="20" height="20" rx="5"/>
    <rect x="344" y="232" width="20" height="20" rx="5"/>
    <rect x="208" y="248" width="20" height="20" rx="5"/>
    <rect x="240" y="264" width="20" height="20" rx="5"/>
    <rect x="272" y="280" width="20" height="20" rx="5"/>
    <rect x="304" y="296" width="20" height="20" rx="5"/>
    <rect x="336" y="312" width="20" height="20" rx="5"/>
    <rect x="224" y="336" width="20" height="20" rx="5"/>
    <rect x="256" y="352" width="20" height="20" rx="5"/>
    <rect x="288" y="368" width="20" height="20" rx="5"/>
    <rect x="320" y="384" width="20" height="20" rx="5"/>
    <rect x="352" y="400" width="20" height="20" rx="5"/>
    <rect x="400" y="248" width="24" height="24" rx="6"/>
    <rect x="424" y="320" width="24" height="24" rx="6"/>
  </g>
  <text x="256" y="474" text-anchor="middle" font-family="Arial, sans-serif" font-size="28" font-weight="700" fill="#0f172a">WECHAT QR</text>
</svg>
