<svg xmlns="http://www.w3.org/2000/svg" width="512" height="512" viewBox="0 0 512 512" role="img" aria-labelledby="title desc">
  <title id="title">Enterprise WeChat QR Placeholder</title>
  <desc id="desc">Placeholder image for the Enterprise WeChat QR code.</desc>
  <rect width="512" height="512" rx="40" fill="#f8fafc"/>
  <rect x="24" y="24" width="464" height="464" rx="28" fill="#ffffff" stroke="#dbe4ee" stroke-width="8"/>
  <rect x="56" y="56" width="112" height="112" rx="16" fill="#111827"/>
  <rect x="72" y="72" width="80" height="80" rx="10" fill="#ffffff"/>
  <rect x="88" y="88" width="48" height="48" rx="6" fill="#111827"/>
  <rect x="344" y="56" width="112" height="112" rx="16" fill="#111827"/>
  <rect x="360" y="72" width="80" height="80" rx="10" fill="#ffffff"/>
  <rect x="376" y="88" width="48" height="48" rx="6" fill="#111827"/>
  <rect x="56" y="344" width="112" height="112" rx="16" fill="#111827"/>
  <rect x="72" y="360" width="80" height="80" rx="10" fill="#ffffff"/>
  <rect x="88" y="376" width="48" height="48" rx="6" fill="#111827"/>
  <g fill="#111827">
    <rect x="208" y="72" width="24" height="24" rx="6"/>
    <rect x="248" y="72" width="24" height="24" rx="6"/>
    <rect x="208" y="112" width="24" height="24" rx="6"/>
    <rect x="264" y="112" width="24" height="24" rx="6"/>
    <rect x="224" y="152" width="24" height="24" rx="6"/>
    <rect x="264" y="168" width="24" height="24" rx="6"/>
    <rect x="296" y="208" width="24" height="24" rx="6"/>
    <rect x="336" y="208" width="24" height="24" rx="6"/>
    <rect x="240" y="224" width="24" height="24" rx="6"/>
    <rect x="208" y="256" width="24" height="24" rx="6"/>
    <rect x="248" y="272" width="24" height="24" rx="6"/>
    <rect x="288" y="272" width="24" height="24" rx="6"/>
    <rect x="328" y="288" width="24" height="24" rx="6"/>
    <rect x="224" y="320" width="24" height="24" rx="6"/>
    <rect x="264" y="336" width="24" height="24" rx="6"/>
    <rect x="304" y="352" width="24" height="24" rx="6"/>
    <rect x="344" y="352" width="24" height="24" rx="6"/>
    <rect x="208" y="384" width="24" height="24" rx="6"/>
    <rect x="248" y="400" width="24" height="24" rx="6"/>
    <rect x="304" y="408" width="24" height="24" rx="6"/>
    <rect x="344" y="416" width="24" height="24" rx="6"/>
    <rect x="392" y="248" width="32" height="32" rx="8"/>
    <rect x="392" y="296" width="32" height="32" rx="8"/>
    <rect x="424" y="328" width="24" height="24" rx="6"/>
  </g>
  <text x="256" y="474" text-anchor="middle" font-family="Arial, sans-serif" font-size="28" font-weight="700" fill="#0f172a">WECOM QR</text>
</svg>
