<svg width="1200" height="900" viewBox="0 0 1200 900" fill="none" xmlns="http://www.w3.org/2000/svg">
  <defs>
    <linearGradient id="bg" x1="120" y1="80" x2="1050" y2="820" gradientUnits="userSpaceOnUse">
      <stop stop-color="#FFF5F3"/>
      <stop offset="1" stop-color="#F5F9FF"/>
    </linearGradient>
    <linearGradient id="panel" x1="190" y1="180" x2="900" y2="720" gradientUnits="userSpaceOnUse">
      <stop stop-color="#FFFFFF" stop-opacity="0.96"/>
      <stop offset="1" stop-color="#FFF7F5" stop-opacity="0.92"/>
    </linearGradient>
    <linearGradient id="accent" x1="328" y1="250" x2="920" y2="688" gradientUnits="userSpaceOnUse">
      <stop stop-color="#E85A4F"/>
      <stop offset="1" stop-color="#FB923C"/>
    </linearGradient>
    <linearGradient id="blue" x1="760" y1="200" x2="920" y2="360" gradientUnits="userSpaceOnUse">
      <stop stop-color="#3B82F6"/>
      <stop offset="1" stop-color="#38BDF8"/>
    </linearGradient>
    <filter id="shadow" x="150" y="145" width="900" height="620" filterUnits="userSpaceOnUse" color-interpolation-filters="sRGB">
      <feFlood flood-opacity="0" result="BackgroundImageFix"/>
      <feColorMatrix in="SourceAlpha" type="matrix" values="0 0 0 0 0 0 0 0 0 0 0 0 0 0 0 0 0 0 127 0" result="hardAlpha"/>
      <feOffset dy="20"/>
      <feGaussianBlur stdDeviation="25"/>
      <feColorMatrix type="matrix" values="0 0 0 0 0.14902 0 0 0 0 0.184314 0 0 0 0 0.254902 0 0 0 0.14 0"/>
      <feBlend mode="normal" in2="BackgroundImageFix" result="effect1_dropShadow_1_2"/>
      <feBlend mode="normal" in="SourceGraphic" in2="effect1_dropShadow_1_2" result="shape"/>
    </filter>
  </defs>
  <rect width="1200" height="900" rx="40" fill="url(#bg)"/>
  <circle cx="228" cy="206" r="120" fill="#FFE0DB" fill-opacity="0.9"/>
  <circle cx="955" cy="160" r="90" fill="#DBEAFE" fill-opacity="0.8"/>
  <circle cx="1030" cy="748" r="140" fill="#FDE68A" fill-opacity="0.35"/>
  <g filter="url(#shadow)">
    <rect x="200" y="175" width="800" height="520" rx="32" fill="url(#panel)"/>
    <rect x="236" y="211" width="330" height="448" rx="24" fill="#0F172A"/>
    <rect x="272" y="247" width="258" height="34" rx="17" fill="url(#accent)" fill-opacity="0.92"/>
    <rect x="272" y="307" width="214" height="18" rx="9" fill="#F8FAFC" fill-opacity="0.92"/>
    <rect x="272" y="337" width="242" height="18" rx="9" fill="#CBD5E1" fill-opacity="0.82"/>
    <rect x="272" y="385" width="222" height="110" rx="18" fill="#111827"/>
    <rect x="294" y="407" width="112" height="14" rx="7" fill="#94A3B8"/>
    <rect x="294" y="435" width="180" height="12" rx="6" fill="#475569"/>
    <rect x="294" y="461" width="152" height="12" rx="6" fill="#475569"/>
    <rect x="272" y="525" width="258" height="96" rx="20" fill="#111827"/>
    <circle cx="322" cy="573" r="24" fill="#E85A4F"/>
    <rect x="360" y="555" width="120" height="14" rx="7" fill="#F8FAFC"/>
    <rect x="360" y="581" width="86" height="12" rx="6" fill="#94A3B8"/>
    <path d="M650 250C650 232.327 664.327 218 682 218H878C895.673 218 910 232.327 910 250V308C910 325.673 895.673 340 878 340H682C664.327 340 650 325.673 650 308V250Z" fill="#FFF7ED"/>
    <rect x="680" y="246" width="122" height="18" rx="9" fill="url(#accent)" fill-opacity="0.9"/>
    <rect x="680" y="280" width="180" height="12" rx="6" fill="#64748B"/>
    <rect x="680" y="302" width="132" height="12" rx="6" fill="#94A3B8"/>
    <circle cx="875" cy="260" r="24" fill="url(#blue)"/>
    <path d="M875 246L885 264H865L875 246Z" fill="white"/>
    <path d="M650 385C650 367.327 664.327 353 682 353H910V467C910 484.673 895.673 499 878 499H682C664.327 499 650 484.673 650 467V385Z" fill="#F8FAFC"/>
    <rect x="680" y="387" width="160" height="16" rx="8" fill="#0F172A"/>
    <rect x="680" y="420" width="188" height="12" rx="6" fill="#94A3B8"/>
    <rect x="680" y="444" width="142" height="12" rx="6" fill="#CBD5E1"/>
    <rect x="680" y="534" width="230" height="125" rx="26" fill="#FFF1EE"/>
    <path d="M712 566C712 553.85 721.85 544 734 544H856C868.15 544 878 553.85 878 566V624C878 636.15 868.15 646 856 646H734C721.85 646 712 636.15 712 624V566Z" fill="#FFFFFF"/>
    <rect x="734" y="569" width="68" height="12" rx="6" fill="#E85A4F"/>
    <rect x="734" y="594" width="104" height="10" rx="5" fill="#64748B"/>
    <rect x="734" y="614" width="86" height="10" rx="5" fill="#94A3B8"/>
    <circle cx="846" cy="594" r="14" fill="#F97316"/>
  </g>
  <text x="126" y="96" fill="#E85A4F" font-family="ui-sans-serif, system-ui, -apple-system, BlinkMacSystemFont, 'Segoe UI', sans-serif" font-size="28" font-weight="700" letter-spacing="0.16em">CLAWSTART STARTER MANUAL</text>
</svg>
