<svg width="1200" height="720" viewBox="0 0 1200 720" fill="none" xmlns="http://www.w3.org/2000/svg">
  <defs>
    <linearGradient id="bg" x1="108" y1="90" x2="1060" y2="644" gradientUnits="userSpaceOnUse">
      <stop stop-color="#FFF7ED"/>
      <stop offset="0.5" stop-color="#FFFFFF"/>
      <stop offset="1" stop-color="#EEF5FF"/>
    </linearGradient>
  </defs>
  <rect width="1200" height="720" rx="36" fill="url(#bg)"/>
  <circle cx="202" cy="138" r="94" fill="#F59E0B" fill-opacity="0.12"/>
  <circle cx="996" cy="578" r="144" fill="#3B82F6" fill-opacity="0.10"/>

  <rect x="118" y="92" width="964" height="536" rx="32" fill="#FFFFFF" stroke="#E5E7EB" stroke-width="2"/>
  <rect x="118" y="92" width="964" height="56" rx="32" fill="#F8FAFC"/>
  <circle cx="154" cy="120" r="7" fill="#F87171"/>
  <circle cx="178" cy="120" r="7" fill="#FBBF24"/>
  <circle cx="202" cy="120" r="7" fill="#34D399"/>
  <rect x="238" y="108" width="182" height="24" rx="12" fill="#F59E0B" fill-opacity="0.14"/>
  <rect x="470" y="108" width="130" height="24" rx="12" fill="#E2E8F0"/>
  <rect x="614" y="108" width="112" height="24" rx="12" fill="#E2E8F0"/>

  <rect x="154" y="178" width="892" height="102" rx="24" fill="#F8FAFC" stroke="#E2E8F0" stroke-width="2"/>
  <rect x="188" y="210" width="110" height="18" rx="9" fill="#0F172A"/>
  <rect x="188" y="242" width="282" height="12" rx="6" fill="#CBD5E1"/>
  <rect x="744" y="208" width="112" height="40" rx="20" fill="#E85A4F"/>
  <rect x="872" y="208" width="138" height="40" rx="20" fill="#ECFDF5"/>
  <text x="907" y="233" fill="#047857" font-family="Arial, sans-serif" font-size="14" font-weight="700">推荐首选</text>

  <rect x="154" y="316" width="260" height="266" rx="26" fill="#FEF2F2" stroke="#FECACA" stroke-width="2"/>
  <rect x="184" y="346" width="114" height="26" rx="13" fill="#E85A4F" fill-opacity="0.12"/>
  <rect x="184" y="392" width="92" height="92" rx="22" fill="#E85A4F" fill-opacity="0.18"/>
  <path d="M229 424L257 448L304 404" stroke="#E85A4F" stroke-width="14" stroke-linecap="round" stroke-linejoin="round"/>
  <rect x="184" y="510" width="130" height="14" rx="7" fill="#991B1B"/>
  <rect x="184" y="536" width="146" height="10" rx="5" fill="#F87171"/>
  <rect x="184" y="556" width="120" height="10" rx="5" fill="#FCA5A5"/>

  <rect x="470" y="316" width="260" height="266" rx="26" fill="#EFF6FF" stroke="#BFDBFE" stroke-width="2"/>
  <rect x="500" y="346" width="114" height="26" rx="13" fill="#2563EB" fill-opacity="0.12"/>
  <rect x="500" y="392" width="92" height="92" rx="22" fill="#2563EB" fill-opacity="0.16"/>
  <path d="M526 438H568" stroke="#2563EB" stroke-width="14" stroke-linecap="round"/>
  <path d="M547 417V459" stroke="#2563EB" stroke-width="14" stroke-linecap="round"/>
  <rect x="500" y="510" width="130" height="14" rx="7" fill="#1E3A8A"/>
  <rect x="500" y="536" width="154" height="10" rx="5" fill="#60A5FA"/>
  <rect x="500" y="556" width="112" height="10" rx="5" fill="#93C5FD"/>

  <rect x="786" y="316" width="260" height="266" rx="26" fill="#F8FAFC" stroke="#CBD5E1" stroke-width="2"/>
  <rect x="816" y="346" width="114" height="26" rx="13" fill="#0F172A" fill-opacity="0.08"/>
  <rect x="816" y="392" width="92" height="92" rx="22" fill="#0F172A" fill-opacity="0.12"/>
  <path d="M842 410L884 452" stroke="#0F172A" stroke-width="14" stroke-linecap="round"/>
  <path d="M884 410L842 452" stroke="#0F172A" stroke-width="14" stroke-linecap="round"/>
  <rect x="816" y="510" width="130" height="14" rx="7" fill="#0F172A"/>
  <rect x="816" y="536" width="148" height="10" rx="5" fill="#94A3B8"/>
  <rect x="816" y="556" width="106" height="10" rx="5" fill="#CBD5E1"/>
</svg>
