<svg width="1200" height="720" viewBox="0 0 1200 720" fill="none" xmlns="http://www.w3.org/2000/svg">
  <defs>
    <linearGradient id="bg" x1="118" y1="78" x2="1038" y2="642" gradientUnits="userSpaceOnUse">
      <stop stop-color="#F8FAFC"/>
      <stop offset="0.48" stop-color="#FFFFFF"/>
      <stop offset="1" stop-color="#FFF1F2"/>
    </linearGradient>
  </defs>
  <rect width="1200" height="720" rx="36" fill="url(#bg)"/>
  <circle cx="252" cy="128" r="96" fill="#3B82F6" fill-opacity="0.10"/>
  <circle cx="952" cy="590" r="146" fill="#E85A4F" fill-opacity="0.10"/>

  <rect x="136" y="92" width="928" height="536" rx="32" fill="#FFFFFF" stroke="#E5E7EB" stroke-width="2"/>
  <rect x="136" y="92" width="928" height="56" rx="32" fill="#F8FAFC"/>
  <circle cx="172" cy="120" r="7" fill="#F87171"/>
  <circle cx="196" cy="120" r="7" fill="#FBBF24"/>
  <circle cx="220" cy="120" r="7" fill="#34D399"/>
  <rect x="258" y="108" width="190" height="24" rx="12" fill="#2563EB" fill-opacity="0.12"/>

  <rect x="172" y="180" width="234" height="330" rx="26" fill="#0F172A"/>
  <rect x="202" y="212" width="124" height="16" rx="8" fill="#F8FAFC" fill-opacity="0.88"/>
  <rect x="202" y="258" width="158" height="18" rx="9" fill="#3B82F6"/>
  <rect x="202" y="294" width="140" height="12" rx="6" fill="#60A5FA"/>
  <rect x="202" y="328" width="162" height="12" rx="6" fill="#94A3B8"/>
  <rect x="202" y="376" width="138" height="42" rx="21" fill="#E85A4F"/>
  <rect x="202" y="432" width="170" height="14" rx="7" fill="#334155"/>
  <rect x="202" y="456" width="142" height="14" rx="7" fill="#475569"/>

  <rect x="446" y="180" width="286" height="330" rx="26" fill="#FFFFFF" stroke="#BFDBFE" stroke-width="2"/>
  <rect x="480" y="214" width="158" height="18" rx="9" fill="#1E3A8A"/>
  <rect x="480" y="258" width="208" height="58" rx="18" fill="#EFF6FF"/>
  <rect x="500" y="278" width="98" height="10" rx="5" fill="#2563EB"/>
  <rect x="500" y="296" width="142" height="8" rx="4" fill="#93C5FD"/>
  <rect x="480" y="342" width="208" height="58" rx="18" fill="#FEF2F2"/>
  <rect x="500" y="362" width="112" height="10" rx="5" fill="#E85A4F"/>
  <rect x="500" y="380" width="88" height="8" rx="4" fill="#FCA5A5"/>
  <rect x="480" y="430" width="120" height="40" rx="20" fill="#10B981"/>
  <text x="505" y="455" fill="#FFFFFF" font-family="Arial, sans-serif" font-size="14" font-weight="700">安装完成</text>

  <rect x="772" y="180" width="256" height="330" rx="26" fill="#F8FAFC" stroke="#E2E8F0" stroke-width="2"/>
  <rect x="804" y="214" width="134" height="18" rx="9" fill="#0F172A"/>
  <rect x="804" y="260" width="192" height="124" rx="20" fill="#FFFFFF" stroke="#E2E8F0" stroke-width="2"/>
  <rect x="830" y="292" width="122" height="10" rx="5" fill="#10B981"/>
  <rect x="830" y="312" width="96" height="8" rx="4" fill="#86EFAC"/>
  <rect x="830" y="346" width="130" height="10" rx="5" fill="#0F172A"/>
  <rect x="830" y="366" width="110" height="8" rx="4" fill="#94A3B8"/>
  <rect x="804" y="416" width="122" height="40" rx="20" fill="#E85A4F"/>
  <text x="836" y="441" fill="#FFFFFF" font-family="Arial, sans-serif" font-size="14" font-weight="700">立即验证</text>

  <path d="M690 342L756 342" stroke="#94A3B8" stroke-width="8" stroke-linecap="round"/>
  <path d="M736 324L756 342L736 360" stroke="#94A3B8" stroke-width="8" stroke-linecap="round" stroke-linejoin="round"/>
</svg>
