<svg width="1200" height="720" viewBox="0 0 1200 720" fill="none" xmlns="http://www.w3.org/2000/svg">
  <defs>
    <linearGradient id="bg" x1="130" y1="72" x2="1060" y2="650" gradientUnits="userSpaceOnUse">
      <stop stop-color="#FFF3F1"/>
      <stop offset="0.55" stop-color="#FFFFFF"/>
      <stop offset="1" stop-color="#EEF5FF"/>
    </linearGradient>
    <linearGradient id="surface" x1="224" y1="116" x2="968" y2="620" gradientUnits="userSpaceOnUse">
      <stop stop-color="#FFFFFF"/>
      <stop offset="1" stop-color="#F8FAFC"/>
    </linearGradient>
  </defs>
  <rect width="1200" height="720" rx="36" fill="url(#bg)"/>
  <circle cx="182" cy="132" r="102" fill="#E85A4F" fill-opacity="0.11"/>
  <circle cx="1014" cy="584" r="148" fill="#3B82F6" fill-opacity="0.10"/>

  <rect x="184" y="84" width="832" height="560" rx="30" fill="url(#surface)" stroke="#E5E7EB" stroke-width="2"/>
  <rect x="184" y="84" width="832" height="54" rx="30" fill="#F8FAFC"/>
  <circle cx="220" cy="111" r="7" fill="#F87171"/>
  <circle cx="244" cy="111" r="7" fill="#FBBF24"/>
  <circle cx="268" cy="111" r="7" fill="#34D399"/>
  <rect x="306" y="100" width="190" height="22" rx="11" fill="#E85A4F" fill-opacity="0.12"/>
  <rect x="548" y="100" width="126" height="22" rx="11" fill="#E2E8F0"/>
  <rect x="686" y="100" width="108" height="22" rx="11" fill="#E2E8F0"/>

  <rect x="216" y="160" width="206" height="452" rx="24" fill="#0F172A"/>
  <rect x="244" y="190" width="86" height="12" rx="6" fill="#F8FAFC" fill-opacity="0.9"/>
  <rect x="244" y="226" width="122" height="34" rx="17" fill="#E85A4F"/>
  <rect x="244" y="278" width="148" height="14" rx="7" fill="#334155"/>
  <rect x="244" y="308" width="136" height="14" rx="7" fill="#475569"/>
  <rect x="244" y="338" width="156" height="14" rx="7" fill="#475569"/>
  <rect x="244" y="392" width="128" height="42" rx="21" fill="#111827" stroke="#1E293B" stroke-width="2"/>
  <rect x="260" y="408" width="66" height="10" rx="5" fill="#94A3B8"/>
  <rect x="244" y="520" width="146" height="18" rx="9" fill="#10B981"/>
  <rect x="244" y="548" width="104" height="10" rx="5" fill="#86EFAC"/>

  <rect x="450" y="160" width="536" height="196" rx="24" fill="#FFFFFF" stroke="#E2E8F0" stroke-width="2"/>
  <rect x="482" y="194" width="138" height="18" rx="9" fill="#0F172A"/>
  <rect x="482" y="232" width="244" height="14" rx="7" fill="#CBD5E1"/>
  <rect x="482" y="256" width="184" height="14" rx="7" fill="#E2E8F0"/>
  <rect x="482" y="298" width="144" height="40" rx="20" fill="#E85A4F"/>
  <rect x="642" y="298" width="144" height="40" rx="20" fill="#EEF2FF"/>
  <rect x="802" y="298" width="148" height="40" rx="20" fill="#F8FAFC" stroke="#E2E8F0" stroke-width="2"/>
  <rect x="498" y="312" width="88" height="12" rx="6" fill="#FFFFFF"/>
  <rect x="674" y="312" width="82" height="12" rx="6" fill="#4F46E5"/>
  <rect x="832" y="312" width="88" height="12" rx="6" fill="#94A3B8"/>

  <rect x="450" y="384" width="536" height="228" rx="24" fill="#F8FAFC" stroke="#E2E8F0" stroke-width="2"/>
  <rect x="482" y="418" width="164" height="18" rx="9" fill="#0F172A"/>
  <rect x="482" y="458" width="212" height="58" rx="18" fill="#FEF2F2"/>
  <rect x="498" y="474" width="74" height="10" rx="5" fill="#E85A4F"/>
  <rect x="498" y="492" width="132" height="8" rx="4" fill="#FCA5A5"/>
  <rect x="724" y="458" width="230" height="58" rx="18" fill="#EFF6FF"/>
  <rect x="740" y="474" width="92" height="10" rx="5" fill="#2563EB"/>
  <rect x="740" y="492" width="148" height="8" rx="4" fill="#93C5FD"/>
  <rect x="482" y="542" width="472" height="22" rx="11" fill="#E2E8F0"/>
  <rect x="482" y="542" width="326" height="22" rx="11" fill="#10B981"/>
  <circle cx="808" cy="553" r="16" fill="#FFFFFF" stroke="#10B981" stroke-width="4"/>

  <rect x="846" y="194" width="104" height="22" rx="11" fill="#ECFDF5"/>
  <text x="862" y="209" fill="#047857" font-family="Arial, sans-serif" font-size="12" font-weight="700">连接已就绪</text>
</svg>
