<svg xmlns="http://www.w3.org/2000/svg" viewBox="0 0 64 64">
  <defs>
    <linearGradient id="grad" x1="0%" y1="0%" x2="100%" y2="100%">
      <stop offset="0%" style="stop-color:#ff6b6b;stop-opacity:1" />
      <stop offset="100%" style="stop-color:#c92a2a;stop-opacity:1" />
    </linearGradient>
  </defs>
  <!-- Lobster body -->
  <ellipse cx="32" cy="36" rx="18" ry="14" fill="url(#grad)"/>
  <!-- Claws -->
  <path d="M18 32 Q10 28 8 22 Q6 18 10 16 Q14 14 18 20 Q20 24 20 28" fill="url(#grad)"/>
  <path d="M46 32 Q54 28 56 22 Q58 18 54 16 Q50 14 46 20 Q44 24 44 28" fill="url(#grad)"/>
  <!-- Head -->
  <circle cx="32" cy="24" r="12" fill="url(#grad)"/>
  <!-- Eyes -->
  <circle cx="28" cy="20" r="3" fill="#fff"/>
  <circle cx="36" cy="20" r="3" fill="#fff"/>
  <circle cx="28" cy="20" r="1.5" fill="#1a1a2e"/>
  <circle cx="36" cy="20" r="1.5" fill="#1a1a2e"/>
  <!-- Antennae -->
  <path d="M26 14 Q24 8 22 6" stroke="url(#grad)" stroke-width="2" fill="none" stroke-linecap="round"/>
  <path d="M38 14 Q40 8 42 6" stroke="url(#grad)" stroke-width="2" fill="none" stroke-linecap="round"/>
  <circle cx="22" cy="6" r="2" fill="url(#grad)"/>
  <circle cx="42" cy="6" r="2" fill="url(#grad)"/>
</svg>
